<?xml version="1.0" encoding="UTF-8"?>
<svg version="1.1" viewBox="0 0 2048 1237" width="1280" height="1280" xmlns="http://www.w3.org/2000/svg">
<path transform="translate(445,399)" d="m0 0h54l29 2 39 6 18 4 26 7 23 8 14 6 24 11 20 11 18 13 13 11 11 9 19 19 11 15 11 19 8 21 4 13 2 18 1 28-2 24-7 27-8 21-10 18-12 17-13 15-8 8-11 9-12 10-18 12-18 10-19 9-27 10-31 9-38 8-33 4-22 2h-57l-34-3-28-4-30-7-38-12-25-10-19-9-18-11-13-10-11-9-10-9-16-16-12-16-8-13-8-15-8-21-5-19-3-14-1-12v-30l2-15 8-26 8-16 7-12 10-13 12-14 19-19 16-12 17-11 22-13 15-8 28-11 25-8 33-8 36-6zm140 20-1 2h2zm-225 1v2l4 1h7v-1zm-79 34-18 10-8 6-5 5 14 6 30 9 4-1-15-5h-2v-7l-1 4h-5v-4-2l4 1 1-2-2-2v-2l5-1v-3h-10v-2h8l2-2 1-8zm397 8-6 5 1 4 6 1 5-5-5-5zm-395 2 1 2zm155 8m-1 1m44 1-24 4-13 4-17 9-16 13-34 34-6 10 4 4 7 3 12 2h9l19-10 11-9 13-11 14-9 12-6 6-2h16l12 4 11 6 14 10 10 8 14 12 11 9 14 13 22 18 13 12 11 9 12 11 5 3 5-1 12-6 32-12 25-8 38-11 20-4 1-1v-8l-4-14-7-17-9-15-12-16-12-14-7-7-8-5-6 1-12 6-19 6-28 6-13 2h-24l-10-2-13-2-21-6-22-8-18-7-6-2-16-3-10-2zm-55 4m-3 1-2 2 5-1zm-3 2m-184 1-7 4-13 12-13 14-11 15-10 16-8 18-4 13 1 4 8 3 32 8 31 9 23 8 30 13 8 5 8 1 7-3 5-3 4-1h7l14 7 5 5 4-1 10-5h14l10 4 9 6 5 6h7l8-1 12 4 9 7 6 12v10l18 7 10 6 8 11 3 10-1 20 2 4 7 3 7 1 16-1 5-4-2-6-13-15-7-10-3-7 7 3 11 9 14 14 11 7h6l13-8 5-6-4-8-8-10-11-12-10-11-3-5v-3l5 1 14 12 7 7 8 7 10 9 6 3 10-2 11-7 4-5 2-8-5-10-12-13-22-22-5-8v-5l8 6 8 8 11 9 16 15 10 8 4 2h9l8-5 8-7 1-7-4-10-7-8-15-14-11-9-15-13-11-9-13-12-11-9-14-12-14-11-16-12-16-8-8-2-10 1-13 5-18 12-14 11-10 7-12 6-12 3-12-1-16-4-6-4-4-6 1-6 7-11 7-7 7-8 10-13-4-1-23 5-8 1h-27l-17-3-28-8-36-12-12-5zm172 5m267 0 3 2 2-1zm-377 3m4 1m473 105 2 5 2 1-2-5zm4 6 1 2zm1 2 1 2zm-455 23-9 6-5 8-1 3v8l2 5 7 8 7 3h7l13-4-1 5v7l5 9 5 5 7 4 7 3 14-7 2 11 4 6 17 9 7-1 10-7 2 9 4 8 8 7 5 2 13 1 8-2 7-6 5-8 1-3v-8l-3-9-7-9-6-4h-10l-9 1h-4l-1-5 3-6 3-4-2-6-7-11-7-4-8-2h-8l-15 7 1-6-5-10-5-4-9-3h-9l-6 3-7 8-3 2-11-15-4-4zm37 77 4 3 5 1-3-3zm9 4m10 7m1 1 2 2v-2z" fill="#070993"/>
<path transform="translate(169,591)" d="m0 0 18 4 46 12 28 9 27 10 12 5 1 4v23l7 10 7 6 20 10 3 5 11 9 9 4 4 1v2l9 3 10 6 3 3 6 2 15 7 16 2 3 7 9 7 7 3h15l13-4 14-8 4 5 7 5 4 1h10l14-3 27-8 13-7 11-8 6-5 16-6 12-7 8-8 6-8 1-4 9-2 11-6 6-5 5-8 1-8-1-18 13-6 22-8 29-9 25-7 34-7 5 8-1 16-4 18-6 16-10 19-10 15-11 14-14 15-17 14-21 14-17 10-24 11-21 8-30 10-24 6-39 7-15 2-13 1h-55l-27-2-37-6-25-6-23-7-32-12-24-11-21-12-17-12-11-9-16-15-14-15-10-14-11-21-8-24-3-13-1-16v-13z" fill="#FDCB23"/>
<path transform="translate(444,410)" d="m0 0h57l30 2 39 6 9 2h8v3l7 1 26 7 25 10 21 10 22 13 12 9 8 7v1l-8 2-6 3-14 3h-2l-6 2-23 4-9 1h-19l-29-4-15-4-51-19-16-3-10-1h-16l-21 1-16 4-6 3-4 1-11 5-5 2-3 3-13 8-2 1v-3l-16 4-25 5h-23l-18-2-18-4-1-1h-8l1-3-14-5-1-3-5 1-2-4 2-3h4l-2-3 1-2 4-1 1-3-6 1h-6l2-1v-2l8-1 3-9-7 2 3-3 17-9 29-12 21-7 11-3h8l-1-2 15-3 23-4 22-2zm234 52-6 5 1 4 6 1 5-5-5-5zm-395 2 1 2z" fill="#FDCB25"/>
<path transform="translate(484,464)" d="m0 0h18l20 3 20 7 38 14 17 4 24 3h19l16-1v2l14-1-1 2-5 2 7 1h5l-4 2-26 5-7 1h-24l-10-2-13-2-21-6-22-8-18-7-6-2-16-3-10-2-18-1-24 4-13 4-17 9-16 13-33 33-6 10 5 4 5 2 12 2h9l19-10 11-9 13-11 14-9 12-6 6-2h16l12 4 11 6 14 10 10 8 14 12 11 9 14 13 22 18 13 12 11 9 12 11 5 3 5-1 12-6 32-12 25-8h12l10-2-1 4-4 2-7 1 2 2-13 4-9 3-16 5-1 3-30 11-7 3 1 23-4 8-5 6-11 7-7 3-6 1-1 4-8 10-9 8-13 7-12 4-11 9-13 8-9 4-24 7-14 3h-10l-7-3-6-5-2-3-16 9-11 3h-15l-10-5-7-6-2-3v-4l-16-1-23-11-6-4-4-2-4-4-15-5-8-5-10-9v-3l-9-3-11-6-10-9-5-8v-26l-33-13-24-8-44-12-16-4v-2l6-2 1-5-7-2-16-3 1-6 3-7 1 3-1 7 40 10 31 9 23 8 30 13 8 5 8 1 7-3 5-3 4-1h7l14 7 5 5 4-1 10-5h14l10 4 10 7 4 5h7l8-1 12 4 9 7 5 8 2 5v8l-1 2 5 1 13 5 10 6 8 10 4 12-1 20 1 3 7 3 7 1 16-1 4-3-2-6-13-15-7-10-2-4v-3l5 1 6 4 12 11 9 9 11 7h6l13-8 4-5-4-8-8-10-11-12-10-11-3-5 1-4 5 1 14 12 7 7 8 7 10 9 6 3 10-2 11-7 4-6 1-6-5-10-12-13-22-22-5-8 1-5 5 2 11 11 11 9 16 15 10 8 4 2h9l8-5 7-6 1-7-4-10-7-8-14-13-11-9-15-13-11-9-13-12-11-9-14-12-14-11-16-12-16-8-8-2-10 1-13 5-18 12-14 11-10 7-12 6-12 3-12-1-16-4-7-5-4-6 1-6 7-11 7-7 7-8 10-13-14 2 1-2 12-3 1-2 4-1 1-2h2l-1-4 2-2 2-1 1 2 9-6 11-6 14-7 7-3 13-4 5-1zm-159 163-9 6-5 8-1 3v8l2 5 7 8 7 3h7l13-4-1 5v7l5 9 5 5 7 4 7 3 14-7 2 11 4 6 17 9 7-1 10-7 2 9 4 8 8 7 5 2 13 1 8-2 7-6 5-8 1-3v-8l-3-9-7-9-6-4h-10l-9 1h-4l-1-5 3-6 3-4-2-6-7-11-7-4-8-2h-8l-15 7 1-6-5-10-5-4-9-3h-9l-6 3-7 8-3 2-11-15-4-4z" fill="#22106A"/>
<path transform="translate(941,451)" d="m0 0h9l12 3 13 7 10 9h3l10-9 16-8 8-2h8l14 3 16 8 9 9 8 13 3 10 1 7 1 18v19l-1 53-1 1-27 1-2-3-1-89-4-8-5-5-7-4h-14l-8 4-7 8-4 10-1 8-1 77-1 1-25 1-3-1-1-28v-51l-2-15-6-9-6-4-3-1h-13l-10 5-7 8-2 5-1 89-1 1h-29l-1-1-1-22v-57l2-14 5-14 7-11 9-9 13-8 12-4z" fill="#090A95"/>
<path transform="translate(1731,410)" d="m0 0 5 1v137l-3 12-6 12-12 12-14 7-15 3h-26l-15-3-10-4-9-7-8-9-7-14-2-7-1-8v-31l3-16 5-12 6-10 9-9 14-8 11-4h14l9 3 11 6 11 9 3 2-1-7v-19l1-19 3-7 16-8zm-65 71-10 5-6 7-5 10-3 17v10l3 17 5 10 8 7 6 2h16l10-5 7-7 5-11 2-10v-18l-4-13-6-10-5-5-6-4-6-2z" fill="#050793"/>
<path transform="translate(1040,617)" d="m0 0 5 1 1 1v59l18-11 8-4 7-2h13l14 4 11 7 10 10 8 14 4 15 2 18v11l-2 17-5 14-9 13-8 7-12 6-15 3h-30l-16-3-10-6-8-7-9-14-4-10-2-14v-111l4-6 9-6 12-5zm33 72-10 3-8 6-6 9-4 12-1 6v16l3 13 6 10 6 5 10 4 4 1h8l10-4 8-7 4-5 4-15v-23l-4-12-5-8-7-7-11-4z" fill="#080A95"/>
<path transform="translate(1157,452)" d="m0 0h12l13 2 14 5 11 7 10 10 8 13 4 14 2 15v13l-1 1-71 1h-30l4 12 5 9 6 7 5 3 9 2h14l12-3 8-6 2-1h23l4-1h7v6l-7 9-7 8-8 6-8 5-11 4-12 2h-22l-12-3-16-8-12-11-9-14-5-14-2-11v-20l4-16 5-12 7-11 8-8 14-9 15-5zm5 27-12 3-6 4-8 9-5 11v3l6 2h42l18-1-1-7-7-12-8-8-7-3-5-1z" fill="#070994"/>
<path transform="translate(1810,451)" d="m0 0h16l16 3 14 7 12 11 7 9 6 13 3 12 1 7v22l-3 16-8 17-8 10-10 8-11 5-16 3h-26l-15-3-11-6-10-9-9-14-6-14-2-11v-27l4-15 8-16 9-11 13-9 11-5zm3 28-12 4-6 5-7 12-3 14-1 13 2 14 4 11 5 7 10 6 3 1h17l9-3 10-9 4-10 2-9 1-17-3-16-6-12-8-7-10-4z" fill="#0B0C94"/>
<path transform="translate(1529,451)" d="m0 0h13l19 3 14 5 8 6 6 7 3 6 1 5v74l-3 10-7 10-8 7-10 5-15 4-7 1h-33l-13-3-9-6-7-8-4-9-2-15 2-12 4-10 8-9 15-8 13-3 28-4 12-4 3-4v-7l-4-8-4-3-5-1h-14l-9 2-6 5-6 11-4 1-8-2h-18l-1-1v-8l5-13 11-12 10-6 16-5zm29 76-33 6-7 3-5 4-2 3-1 11 3 10 6 5 3 1h10l13-4 8-6 5-8 3-9 1-13-2-3z" fill="#090B95"/>
<path transform="translate(1295,660)" d="m0 0h14l14 3 13 5 10 7 9 9 8 14 5 15 3 18v6l-3 2-99 1 4 15 7 10 8 5 9 3h14l11-4 10-5 12-1 22-1-2 7-7 9-9 10-9 6-11 4-11 2h-27l-14-3-12-6-10-9-7-9-5-11-4-13-1-6v-24l4-15 8-16 9-11 13-9 15-6zm9 26-11 2-11 6-9 12-3 7v4l5 1h56l5-2-1-6-7-11-4-5-10-6z" fill="#050794"/>
<path transform="translate(1390,452)" d="m0 0h22l13 3 16 8 9 7 8 11 6 16-1 5-32 1-5-3-7-10-5-6-10-4-9 1-10 5-8 9-4 11-2 11v16l3 13 6 12 6 5 7 2h15l8-3 5-5 4-14 7-1h30l1 5-5 13-6 11-9 10-8 6-11 5-9 2-9 1h-12l-16-2-13-4-9-6-8-8-6-10-5-11-3-13-1-20 2-17 6-16 7-12 9-10 13-8 11-4z" fill="#090B95"/>
<path transform="translate(171,568)" d="m0 0 1 3-1 7 40 10 31 9 23 8 30 13 8 5 8 1 7-3 5-3 4-1h7l14 7 5 5 4-1 10-5h14l10 4 10 7 4 5h7l8-1 12 4 9 7 5 8 2 5v8l-1 2 5 1 13 5 10 6 8 10 4 12-1 13v13l-11 6-12 6-8 2h-15l-10-5-7-6-2-3v-4l-16-1-23-11-6-4-4-2-4-4-15-5-8-5-10-9v-3l-9-3-11-6-10-9-5-8v-26l-33-13-24-8-44-12-16-4v-2l6-2 1-5-7-2-16-3 1-6zm154 59-9 6-5 8-1 3v8l2 5 7 8 7 3h7l13-4-1 5v7l5 9 5 5 7 4 7 3 14-7 2 11 4 6 17 9 7-1 10-7 2 9 4 8 8 7 5 2 13 1 8-2 7-6 5-8 1-3v-8l-3-9-7-9-6-4h-10l-9 1h-4l-1-5 3-6 3-4-2-6-7-11-7-4-8-2h-8l-15 7 1-6-5-10-5-4-9-3h-9l-6 3-7 8-3 2-11-15-4-4z" fill="#28166B"/>
<path transform="translate(913,618)" d="m0 0h7v179l-3 1h-28l-2-4v-146l1-12 7-10 6-4z" fill="#0A0C96"/>
<path transform="translate(484,464)" d="m0 0h18l20 3 20 7 38 14 17 4 24 3h19l16-1v2l14-1-1 2-5 2 7 1h5l-4 2-26 5-7 1h-24l-10-2-13-2-21-6-22-8-18-7-6-2-16-3-10-2-18-1-24 4-13 4-17 9-16 13-33 33-6 10 5 4 5 2 12 2h9l19-10 11-9 13-11 14-9 12-6 6-2h16l12 4 11 6 10 7 2 7 3 5-1 4-15-11-15-8-6-2h-11l-13 4-10 5-17 12-14 11-13 8-12 4-10 1-20-4-8-4-6-8 1-6 7-11 7-7 7-8 10-13-14 2 1-2 12-3 1-2 4-1 1-2h2l-1-4 2-2 2-1 1 2 9-6 11-6 14-7 7-3 13-4 5-1z" fill="#07044A"/>
<path transform="translate(1220,660)" d="m0 0h10l1 1v33l-20 2-14 7-4 5-2 5-1 15-1 68-3 2h-30l-3-4v-47l1-30 5-16 6-12 9-10 7-6 14-7z" fill="#040694"/>
<path transform="translate(1316,451)" d="m0 0h7l2 2v33l-4 2h-15l-10 4-5 5-5 8-2 7-1 10v69l-1 1h-32l-1-1v-73l3-19 5-13 7-11 7-7 16-9 19-6z" fill="#040694"/>
<path transform="translate(952,665)" d="m0 0h31v132l-1 1h-32l-1-3v-31l1-97z" fill="#040693"/>
<path transform="translate(489,520)" d="m0 0 9 1 16 8 13 9 4 3-1-4-3-5v-5l7 4 15 13 11 9 10 9 8 7 14 12 10 8 13 12 11 9 12 11 5 3 5-1 12-6 32-12 25-8h12l10-2-1 4-4 2-7 1 2 2-13 4-9 3-16 5-1 3-30 11-7 3 1 23-4 8-3 2-1-2h2l-2-8-1-14-11-12-11-9-9-6-10-9-11-9-13-11-12-11-11-9-14-12-14-11-16-12-16-8-8-2z" fill="#24126B"/>
<path transform="translate(327,617)" d="m0 0h7l14 7 5 5 4-1 10-5h14l10 4 10 7 4 5h7l8-1 12 4 9 7 5 8 2 5v8l-1 2 5 1 13 5 10 6 8 10 4 12-1 13-2 2-1-14-4-9-2-2 3 11-1 14-3 8-6 3-1 2-7 1-3 1h-14l-9-3-1-2 13 3 13-1 6-4 7-10 1-3v-8l-3-9-7-9-5-3h-10l-9 1h-4l-2-2 1-7 5-7-2-6-6-10-7-4-8-2h-8l-12 6h-3v-6l-5-10-6-4-7-2h-9l-6 3-7 8-4 3-5-9-7-10-2-1h-12l-5 3-5-1-8-4 4-2 7-3 5-3z" fill="#0E1098"/>
<path transform="translate(445,399)" d="m0 0h54l29 2 10 2 1 3h-21l-5 2-1 3h-68l-31 2-22 3-23 4-7 1-7 3-20 6-25 10-20 9-11 6-4 4-11 6-7 4-5 1v-8l16-12h3v-2l3-2 10-3h3l1-3 13-4 4-1 19-7 26-9 26-7-5-2 4-2 41-7z" fill="#211068"/>
<path transform="translate(171,568)" d="m0 0 1 3-1 7 40 10 31 9 23 8 30 13 8 5 4 1v2l7 2 4 4-6 3-2 5-1 7h-2v2l-4 1-1 9-2-1v-26l-33-13-24-8-44-12-16-4v-2l6-2 1-5-7-2-16-3 1-6z" fill="#090A94"/>
<path transform="translate(478,509)" d="m0 0h16l12 4 11 6 10 7 2 7 3 5-1 4-15-11-15-8-6-2h-11l-13 4-10 5-17 12-14 11-13 8-8 3h-5l-1-5-2-1 9-6 12-6 11-9 13-11 14-9 12-6z" fill="#131497"/>
<path transform="translate(416,638)" d="m0 0 8 1 9 4 8 6 5 8 2 5v8l-1 2 5 1 13 5 10 6 8 10 4 12-1 13-2 2-1-14-4-9-2-2 3 11-1 14-3 8-6 3-1 2-7 1-3 1h-14l-9-3-1-2 13 3 13-1 6-4 7-10 1-3v-8l-3-9-7-9-5-3h-10l-9 1h-4l-2-2 1-7 5-7-2-6-6-10-7-4-13-4-5-2 4-1 5 2h4l-5-6-2-2z" fill="#2728A0"/>
<path transform="translate(268,488)" d="m0 0 15 5 10 2-12-4-2-3 7 1 8 1v2h9l25 5 11 1h23l25-5 8-2h7l-2 3v3h-2l-1 3h-4l-1 3-12 3-2 2-23 2h-13l-14-1-28-7-33-10-3-3z" fill="#030147"/>
<path transform="translate(401,490)" d="m0 0h2l1 4-5 8 12-7 5-2 3-1 1-2 1 2 3 2-14 12-32 32-6 10 5 4 5 2 20 3 3 8-10 1-20-4-8-4-6-8 1-6 7-11 7-7 7-8 10-13-14 2 1-2 12-3 1-2 4-1 1-2h2l-1-4 2-2z" fill="#0C0D94"/>
<path transform="translate(402,403)" d="m0 0 2 1h18l-1 3-33 3 7 1-3 2 4 1v-2l7 1v1l-35 6-7 1-7 3-20 6-25 10-20 9-11 6-4 4-11 6-7 4-5 1v-8l16-12h3v-2l3-2 10-3h3l1-3 13-4 4-1 19-7 26-9 26-7-5-2 4-2z" fill="#1D0D6C"/>
<path transform="translate(950,617)" d="m0 0 32 1 1 1v30l-5 2h-28l-1-1v-30z" fill="#070894"/>
<path transform="translate(489,520)" d="m0 0 9 1 16 8 13 9 4 3-1-4-3-5v-5l7 4 15 13 11 9 10 9 8 7 14 12 10 8h-3l-5-2 5 10 3 5 8 7h-3l-15-13-11-9-13-12-11-9-14-12-14-11-16-12-16-8-8-2z" fill="#14159A"/>
<path transform="translate(477,695)" d="m0 0 4 4 3 8 2 25-11 6-12 6-8 2h-15l-10-5-7-6-2-3v-4l-16-1-3-1-7-7 2-2h22l5 5v2h2l2-2 8 10 9 3h14l5-2 5 1 1-3 3-2h3l1-6 1-2 1-14-3-11z" fill="#25136A"/>
<path transform="translate(601,493)" d="m0 0 20 2h19l16-1v2l14-1-1 2-5 2 7 1h5l-4 2-26 5-7 1h-24l-10-2-13-2-4-2 15-1-16-2-8-2 1-2 15 1-1-2z" fill="#200D67"/>
<path transform="translate(250,462)" d="m0 0 2 2v5l6-1-3 3-4 3 10 5 33 10v1h-8l-6-1 10 4 4 2-4 1-19-6-3-1-3 1 18 6 28 8 17 4 14 1h13l17-1v1l-13 2h-27l-17-3-28-8-36-12-15-6 2-3 4-1-7-3 1-3 10-7z" fill="#07034F"/>
<path transform="translate(593,586)" d="m0 0 5 1 8 6 8 7v3l4 2 2 5 4 2 5 5 1 3 3 1 1 5 8 2h9l1 1 2 27-4 8-3 2-1-2h2l-2-8-1-14-11-12-11-9-9-6-10-11-5-4-5-12z" fill="#0B0A4C"/>
<path transform="translate(171,568)" d="m0 0 1 3-1 7 40 10 31 9 23 8 7 3v2l-10-3-4-1-4 1-2-2-8-2h-4v2l-17-2-16-4-2-1-18-2-4-1v-2l6-2 1-5-7-2-16-3 1-6z" fill="#26156B"/>
<path transform="translate(380,690)" d="m0 0h3l4 13 5 5 14 7 7-1 8-6h2l4 11v6l-3-1-3-5-2-1h-22l-1 3 5 2 1 2-6-2-15-8-5-3-4-2-4-4-7-3-2-6 2-3 5 1 3 1z" fill="#22126E"/>
<path transform="translate(561,620)" d="m0 0 5 2 11 11 11 9 16 15 10 8 4 2 1 3-7-1-7-4 2 4 2 1v2l5 2-2 4-5-1-4-6-8-10-5-3-25-25-5-8z" fill="#151354"/>
<path transform="translate(327,617)" d="m0 0h7l14 7 8 7 12 2-3 2-5 4-5 6-4 3-5-9-7-10-2-1h-12l-5 3-5-1-8-4 4-2 7-3 5-3z" fill="#181A9C"/>
<path transform="translate(165,580)" d="m0 0 28 5-2 2-1 4-2 2-9 1-10-2v13l1 19-1 10-6-5-1-2v-35z" fill="#200D67"/>
<path transform="translate(479,510)" d="m0 0h11l9 2 11 3 10 6 7 5 2 7 3 5-1 4-15-11-15-8-6-2-8-1v-2l-3-1 2-3-10 1 1-4z" fill="#0D0B55"/>
<path transform="translate(366,410)" d="m0 0 11 1-2 2-32 9-20 7-19 7-4 1-13 4-1 2-8 3h-5l3-3 17-9 28-11 25-8zm-95 36 2 1-3 1v2l-2-1z" fill="#111091"/>
<path transform="translate(620,619)" d="m0 0 4 2 11 9 5 5v2l3 1 3 4 2 22-1 4-11 8-9 4h-7l-3 1v-4l3-3 4-3-6-2v-1l9-1 8-5 7-6 1-7-4-10-7-8-12-11z" fill="#131497"/>
<path transform="translate(528,660)" d="m0 0 5 1 8 7 7 8 21 21-1 3h-2l-1 7h-3l-9-13-14-15-9-10-3-5z" fill="#121050"/>
<path transform="translate(395,491)" d="m0 0h7l-2 3v3h-2l-1 3h-4l-1 3-12 3-2 2-23 2h-13l-10-1v-1l9-1v-1l-13-1-2-2h19l10 2h8l12-5 3-1-5-1 1-2z" fill="#200E69"/>
<path transform="translate(299,439)" d="m0 0 1 2h2v2l-24 12-4 4-11 6-7 4-5 1v-8l16-12h3v-2l3-2 13-4 8-1z" fill="#0C0A49"/>
<path transform="translate(463,465)" d="m0 0h9v1l-17 3-6 2v3l2 1-7 2-19 9 9 1-5 4-3 2h-5l-2-1-4 3-7 3-5 3h-3l-1 2v-3l7-10 14-8 16-8 9-4 13-4z" fill="#08046F"/>
<path transform="translate(705,485)" d="m0 0h4v2h-2v2l-5 4-22 7-14 1-5-1 3-2 4-2-13 1 1-4 26-5 8-2h10z" fill="#0E0D54"/>
<path transform="translate(497,691)" d="m0 0 5 1 6 4 12 11 9 9 6 4v3h2l-1 3-6 2-6-3-7-8-7-7-5-7-5-3-3-6z" fill="#181654"/>
<path transform="translate(416,638)" d="m0 0 8 1 9 4 8 6 5 8 2 6-6 5h-2l-7-12-7-4-13-4-5-2 4-1 5 2h4l-5-6-2-2z" fill="#272798"/>
<path transform="translate(553,553)" d="m0 0 4 1 8 6 10 9 10 8 2 6-2 4-4-2-9-8-7-4-11-10-5-7z" fill="#141150"/>
<path transform="translate(380,690)" d="m0 0h3l4 13 5 6h-7v2l-2-1-2-2-7-2-9-1-4-2-2-6 2-3 5 1 3 1z" fill="#1E0F70"/>
<path transform="translate(469,469)" d="m0 0h10v3l4 2-10 2-24 5-13 6h-12l1-2 19-9 6-1 1-2 9-2z" fill="#3F3D77"/>
<path transform="translate(614,601)" d="m0 0 5 3 12 11 10 8 5 1 14-7 16-6 4-1-1 6-7 1v2l-6 1v2l-3 1-4-2v2l3 1-9 3h-4v2h-7l-8-3-2-5-6-5-4-5-8-8z" fill="#20219D"/>
<path transform="translate(555,550)" d="m0 0 4 2 11 10 8 7 14 12 10 8h-3l-5-2 5 10 3 5 8 7h-3l-15-13-11-9-11-10h3l10 9 2 1 1-5-1-5-4-2-13-12-8-7z" fill="#6566BC"/>
<path transform="translate(380,791)" d="m0 0 9 1 32 5 27 2 56 1v1l-9 1h-74l-7-2-19-3-4-2-9-2z" fill="#190A5E"/>
<path transform="translate(477,695)" d="m0 0 4 4 3 8 2 25-4 2-7 2-2 2-7-1v-3h3l1-3 3-2h3l1-6 1-2 1-14-3-11z" fill="#1F0F6C"/>
<path transform="translate(388,637)" d="m0 0 9 2 16 5h4l-7-3 4-2 5 4 3 5-7-1h-2l3 2-8 2-10 5h-3v-6l-5-10z" fill="#070452"/>
<path transform="translate(593,660)" d="m0 0 4 2 10 13 1 2 5-1 1-2-5-2v-2l-4-2-1-4 7 3 3 2h8l3 2-5 4h-2l-1 5 6-1-2 3-1 2-4 2-5 1h-6l2-4h2v-2h-5l-1-6-6-9z" fill="#1C0B6C"/>
<path transform="translate(561,620)" d="m0 0 5 2 11 11 11 9 2 4h-6l-4-4v-3h-5l9 10-1 2-18-18-5-8z" fill="#16126C"/>
<path transform="translate(238,479)" d="m0 0 3 1v2l42 14 28 8 17 4 14 1h13l17-1v1l-13 2h-27l-17-3-28-8-36-12-15-6z" fill="#FDFDFD"/>
<path transform="translate(649,494)" d="m0 0h7v2l14-1-1 2-5 2 7 1h5l-4 2-17 3-9-2h-7l-1-2 5-3-4-2 1-1z" fill="#433380"/>
<path transform="translate(166,582)" d="m0 0h10l17 3-2 2-1 4-2 2-9 1-8-2-2-6h-4z" fill="#020148"/>
<path transform="translate(659,442)" d="m0 0 4 1 16 8 11 7-1 4-8-3-5-1-19-11v-4z" fill="#040143"/>
<path transform="translate(426,482)" d="m0 0 1 3v1l7 1-5 4-3 2h-5l-2-1-4 3-7 3-5 3h-3l-1 2v-3l7-10 4-2 7-1 6-2z" fill="#200D67"/>
<path transform="translate(313,633)" d="m0 0h3l-2 4-3 7v8l2 5 6 7 4 3h-12l-3-9-4 1 2 4-2 1-3-5 1-9 5-1v-2h2v-7l3-6z" fill="#0C0D95"/>
<path transform="translate(383,555)" d="m0 0 11 1 8 1 3 8-10 1-20-4-5-2v-1h12l5-1v-2z" fill="#FDFDFD"/>
<path transform="translate(483,474)" d="m0 0h17l18 2 16 4 25 11 18 7-3 1-20-7-23-9-6-2-16-3-10-2-16-1z" fill="#FDFDFD"/>
<path transform="translate(464,733)" d="m0 0 3 1-1 3h7l3-3 4 1-14 8-11 3-14-1 8-4h3l2-4z" fill="#01028F"/>
<path transform="translate(250,462)" d="m0 0 2 2v5l6-1-3 3-4 3 10 5 13 4-4 1-18-6-16-2-1-2 4-4z" fill="#1F0D64"/>
<path transform="translate(315,425)" d="m0 0 3 1-2 2h-3v2h2v2l-12 5-11 2-5 2-1 2-8 3h-5l3-3 17-9zm-44 21 2 1-3 1v2l-2-1z" fill="#2527A1"/>
<path transform="translate(484,513)" d="m0 0 4 1-3 3 2 1v2l-16 5-8 2v-2l-4-1v-2l8-5 6-3h2v2z" fill="#000292"/>
<path transform="translate(1842,491)" d="m0 0 3 1 5 8 3 9 1 10v12l-2 11-6 11-2 1 3-10 2-9 1-17-3-16z" fill="#FDF8E8"/>
<path transform="translate(465,404)" d="m0 0 12 2 8 2 3 2-53 1 2-2 13-3z" fill="#04038C"/>
<path transform="translate(624,496)" d="m0 0h15l9 2v1l-5 1-4 2h7l9 2v1h-31l-6-1v-2h7l-1-2h2v-2h-5z" fill="#03038D"/>
<path transform="translate(742,510)" d="m0 0 5 1 7 6 6 4 4 7-1 4-1 2 3 9-3-3-7-12-12-16z" fill="#54468C"/>
<path transform="translate(345,663)" d="m0 0 2 1-2 15-1 2h-2v-3l-3 4-1-4-5-1 1-4h-2l-2-5z" fill="#292862"/>
<path transform="translate(350,686)" d="m0 0h2l4 4 6 3-2 5 1 5-6-1-9-5-1-3 1-4 4-2z" fill="#291A70"/>
<path transform="translate(397,717)" d="m0 0h14v2l6 1 2-1 1 5-6 2-9 1-3-1-7-7z" fill="#000040"/>
<path transform="translate(1702,540)" d="m0 0h1l-1 7-5 10-9 8-9 3h-14l-9-3-9-8-4-7 1-3 1 3h2l5 8 6 5 6 2h16l10-5 7-8z" fill="#FDFDFD"/>
<path transform="translate(537,473)" d="m0 0 11 3 29 11 15 4 9 2v1h-9l-21-5-17-7-10-5-7-3z" fill="#000292"/>
<path transform="translate(339,417)" d="m0 0 2 1-1 5-17 6-5 2-5-1v-2l4-2 1-2z" fill="#1B1891"/>
<path transform="translate(274,484)" d="m0 0 9 2 11 3v1h-8l-6-1 10 4 4 2-4 1-19-6-3-1-6 1-4-3 13-1 5 1 1-1h-3z" fill="#200D65"/>
<path transform="translate(402,403)" d="m0 0 2 1h18l-1 3-22 2-13 1v-2h-7v-1z" fill="#0A0B95"/>
<path transform="translate(615,502)" d="m0 0h3v2h32l2 2-13 2h-24l-5-1 2-1 1-3z" fill="#514591"/>
<path transform="translate(1786,503)" d="m0 0 1 4-2 20 2 14 2 9-3-3-4-12-1-5v-11l3-12z" fill="#FDF7E6"/>
<path transform="translate(171,568)" d="m0 0 1 3-1 7 40 10 14 4v1l-9-1-27-7-22-4 1-6z" fill="#FDFDFD"/>
<path transform="translate(328,678)" d="m0 0 10 2-3 2 6 2 4-1v3l2-2 3 2v2l-4 3v4l-5-2-6-6v-3l-9-3-1-2z" fill="#0B0566"/>
<path transform="translate(421,708)" d="m0 0h2l4 11v6l-3-1-3-5-2-1-14-1-5-2-1-3 5 2 7 1z" fill="#030146"/>
<path transform="translate(477,695)" d="m0 0 4 4 2 5 1 27-2-4h-2l-2-6 1-14-3-11z" fill="#00003C"/>
<path transform="translate(1100,702)" d="m0 0 4 4 4 8 1 6v25l-4 12-2 1 3-15v-23l-4-12z" fill="#FDFAF3"/>
<path transform="translate(489,520)" d="m0 0 9 1 16 8 13 9 13 11 8 7h-3l-17-14-17-12-14-7-8-2z" fill="#FDFDFD"/>
<path transform="translate(1646,498)" d="m0 0 1 3-3 12-1 7v10l1 9-1 5-2-1-2-12 1-16 4-13z" fill="#FDFDFD"/>
<path transform="translate(555,550)" d="m0 0 4 2 11 10 8 7 14 12 10 8h-3l-11-8-10-9-8-7-12-11z" fill="#FDFDFD"/>
<path transform="translate(1608,528)" d="m0 0h1l3 24 5 12 9 12 5 5 3 4-5-2-9-9-8-14-3-10-1-8z" fill="#FDFCFA"/>
<path transform="translate(546,544)" d="m0 0 5 1 10 11h-3l-2-2-4 1-2 2 4 5-4-2-5-6z" fill="#433686"/>
<path transform="translate(941,451)" d="m0 0h9l12 3 6 3-4 1-7-2-9-1h-12l-12 3-3-1 14-5z" fill="#817DA6"/>
<path transform="translate(541,669)" d="m0 0 4 2 9 9 8 7 10 9 6 3h6l-2 2-7 1-6-4-28-28z" fill="#FDFDFD"/>
<path transform="translate(726,604)" d="m0 0m-2 0 2 2-2 3-25 7-9 3 1-4 20-6z" fill="#05038B"/>
<path transform="translate(438,473)" d="m0 0 3 1-4 1 1 3-8 4-5 2-4 3-8 2v-3l11-6z" fill="#170961"/>
<path transform="translate(473,462)" d="m0 0h21l7 1-1 2h-16l-21 1-9 1 3-2z" fill="#FDFDFD"/>
<path transform="translate(527,527)" d="m0 0 7 4 7 6-4 2 1 4-3 1-3-1-3-9-2-2z" fill="#4B3C86"/>
<path transform="translate(367,623)" d="m0 0h14l10 4 4 4-12-3-21-2 2-2z" fill="#FDFDFD"/>
<path transform="translate(646,645)" d="m0 0h1v7l3-2 1-5h1v7h2l-1 7-4 6h-3l2-1-2-8z" fill="#200D67"/>
<path transform="translate(301,634)" d="m0 0 2 3 1 5 4 1-1 6-4 1-1 9-2-1v-23z" fill="#220E65"/>
<path transform="translate(181,537)" d="m0 0h2l-1 5-6 10-1 9-4 1-1-2 3-10 6-11z" fill="#200F67"/>
<path transform="translate(643,436)" d="m0 0 8 1 2 4 4-1 3 2-3 1 1 3-2 1-13-6z" fill="#1E0C6A"/>
<path transform="translate(370,705)" d="m0 0 5 1 7 2 3 3v-2l5 1-2 3-7 2-5-3-4-2z" fill="#0E0E93"/>
<path transform="translate(316,622)" d="m0 0 4 2 11 2v1l-8 2-3 2-5-1-8-4 4-2z" fill="#FAFAFB"/>
<path transform="translate(345,636)" d="m0 0 13 2v4l-5 4-2 2-5-9z" fill="#3F3C72"/>
<path transform="translate(342,632)" d="m0 0 3 1 12 1v-2l11 1-3 2-5 4-16-2z" fill="#FDFDFD"/>
<path transform="translate(705,485)" d="m0 0h4v2h-2v2l-5 4h-7l-2-2 1-5z" fill="#130F55"/>
<path transform="translate(245,599)" d="m0 0 9 2 18 7v2l-10-3-4-1-4 1-2-2-7-2-1-3z" fill="#554786"/>
<path transform="translate(560,622)" d="m0 0 5 5 7 8 11 13v3l-18-18-5-8z" fill="#FDFDFD"/>
<path transform="translate(503,702)" d="m0 0 3 1 8 10 10 10 1 3-3 2-4-6-12-14-3-4z" fill="#FDFDFD"/>
<path transform="translate(780,606)" d="m0 0 2 2-1 14-2 7v7l-4 5-1-3 4-18z" fill="#1E0C68"/>
<path transform="translate(337,627)" d="m0 0 7 1 12 3 1 3 4 1-16-1-5-3z" fill="#FDFDFD"/>
<path transform="translate(528,660)" d="m0 0 5 1 8 7h-3-3l-2 4-6-8z" fill="#6A6AAA"/>
<path transform="translate(620,619)" d="m0 0 4 2 11 9 6 7 4 9v6l-2-3-4-10-7-8-12-11z" fill="#FDFDFD"/>
<path transform="translate(381,699)" d="m0 0 5 2 4 6 2 2h-7v2l-2-1-5-4 2-3z" fill="#5D5092"/>
<path transform="translate(171,633)" d="m0 0 2 1 6 19-1 3v-2l-4-1-3-9z" fill="#1D0C6B"/>
<path transform="translate(389,558)" d="m0 0h4v3l4-1 4 1-1 5-9-1v-2h-6z" fill="#121399"/>
<path transform="translate(476,728)" d="m0 0 3 1v2h-2l-2 5-2 2-7-1v-3h3l1-3z" fill="#060243"/>
<path transform="translate(318,496)" d="m0 0 21 2 20 1v1l-16 1h-13l-12-4z" fill="#1E0C6A"/>
<path transform="translate(1656,452)" d="m0 0h14l9 3-4 1-14-1-14 1 3-2z" fill="#B1ACCE"/>
<path transform="translate(313,633)" d="m0 0h3l-2 4-3 7v8l2 5 4 6-4-2-3-3-2-11 2-10z" fill="#FDFDFD"/>
<path transform="translate(593,586)" d="m0 0 5 1 6 4-4 2 1 5 1 3 5 1-1 4-7-6-5-12z" fill="#241370"/>
<path transform="translate(982,793)" d="m0 0 1 4-1 1h-32v-2h17l12-1z" fill="#FDFDFD"/>
<path transform="translate(1588,472)" d="m0 0 3 4 2 7v24h-1l-3-28z" fill="#FDFDFD"/>
<path transform="translate(1800,562)" d="m0 0 8 3h17l7-1-4 3-11 2-9-1-8-4z" fill="#F9F5EC"/>
<path transform="translate(1643,547)" d="m0 0 2 1v2h2l5 8 6 5 7 3-4 1-8-4-8-9-2-4z" fill="#F8F7F4"/>
<path transform="translate(256,468)" d="m0 0 2 1-7 5 10 5 13 4-4 1-18-6-8-1 10-8z" fill="#FDF4D6"/>
<path transform="translate(328,678)" d="m0 0 10 2-3 2 6 2-1 7-5-4v-3l-9-3-1-2z" fill="#04038C"/>
<path transform="translate(497,691)" d="m0 0 5 1 6 4 1 2-6 1-1 3-5-8z" fill="#2C268F"/>
<path transform="translate(575,635)" d="m0 0 5 2 7 4 3 3-1 2-7-1-2-3v-3l-6-1z" fill="#342171"/>
<path transform="translate(248,479)" d="m0 0 5 1v2l9 1 1 2h-10l-3 1-8-3 3-1 2 1z" fill="#261775"/>
<path transform="translate(1321,451)" d="m0 0 4 2v33l-4 2-12-1v-1l15-1-1-32h-2z" fill="#FDFDFD"/>
<path transform="translate(614,601)" d="m0 0 5 3 12 11 5 5-5-2-2-2h-3l-4-5-8-8z" fill="#A7A4CE"/>
<path transform="translate(1477,564)" d="m0 0 2 3 5 9 9 10 4 4-5-2-8-7-6-10z" fill="#FDFCF9"/>
<path transform="translate(477,517)" d="m0 0h8l2 1v2l-16 5-3 1 1-3 6-3z" fill="#4F4BA4"/>
<path transform="translate(244,477)" d="m0 0h8l5 2-1 2h-6v-2h-2l-1 4h-6v-4z" fill="#050248"/>
<path transform="translate(294,495)" d="m0 0 10 1 6 2 7 1 4 3-10-1-17-4z" fill="#220E65"/>
<path transform="translate(435,682)" d="m0 0 1 2h9l10 1v1l-12 2-5 1-3-3z" fill="#FDFDFD"/>
<path transform="translate(693,487)" d="m0 0 2 3v2l4 2-9 3-6-1 2-1v-3l6-2z" fill="#403385"/>
<path transform="translate(428,726)" d="m0 0 8 6 10 4-4 2-5-1-8-7z" fill="#010290"/>
<path transform="translate(593,660)" d="m0 0 4 2 10 13 2 4-5 1-3-9-8-10z" fill="#FDFDFD"/>
<path transform="translate(435,652)" d="m0 0 5 2 2 1-1 5-5 1-2-3v-5z" fill="#0E0B4A"/>
<path transform="translate(285,438)" d="m0 0 3 1-2 4-8 3h-5l3-3zm-14 8 2 1-3 1v2l-2-1z" fill="#3B3CA8"/>
<path transform="translate(412,639)" d="m0 0 5 2 5 7-7-1-13-4 4-1 7 2h4l-7-3z" fill="#FDFDFD"/>
<path transform="translate(690,486)" d="m0 0 4 1-2 4-7 1-8-2v-1z" fill="#000291"/>
<path transform="translate(380,690)" d="m0 0h3l1 5-4-1-6 1 1 3h-5l1 2-5 3 2-6z" fill="#8485C7"/>
<path transform="translate(609,678)" d="m0 0 2 4 6 1-2 4h-3-7l2-4h2v-2h-5l4-2z" fill="#02028E"/>
<path transform="translate(565,561)" d="m0 0 5 3 13 12 2 2-5-1-10-9-5-5z" fill="#0E077E"/>
<path transform="translate(1023,778)" d="m0 0 7 6 9 8 9 4-4 1-10-6-8-7-3-4z" fill="#FDFDFD"/>
<path transform="translate(707,610)" d="m0 0m-3 1h3l-1 3-16 5 1-4z" fill="#03038D"/>
<path transform="translate(1142,560)" d="m0 0 7 4 9 2 14 1v1h-20l-8-4z" fill="#FDFDFD"/>
<path transform="translate(479,510)" d="m0 0h11l1 2-7 2-8 1 1-4z" fill="#02003E"/>
<path transform="translate(424,480)" d="m0 0h2l-2 5-3 2-8 2v-3z" fill="#050794"/>
<path transform="translate(1277,763)" d="m0 0 9 6 11 4 6 1v1h-8l-10-3-8-7z" fill="#FDFAF3"/>
<path transform="translate(445,657)" d="m0 0 2 2 1 4-6 5h-2l-2-5 5-3z" fill="#FDFDFD"/>
<path transform="translate(588,502)" d="m0 0h22v1l-5 1v2l-13-2z" fill="#898ACC"/>
<path transform="translate(485,726)" d="m0 0 4 4 5 2 12 2v1h-14l-6-3z" fill="#FDFDFD"/>
<path transform="translate(604,664)" d="m0 0 7 3 4 4-1 3-5-2v-2l-4-2z" fill="#200D67"/>
<path transform="translate(1194,556)" d="m0 0h12l1 2-13 2-7 2 5-5z" fill="#FDFDFD"/>
<path transform="translate(476,517)" d="m0 0m-3 1h3l-2 4-5 2-1 2-5 1v-2l-4-1 1-2 6 1 4-4z" fill="#1F0D68"/>
<path transform="translate(681,458)" d="m0 0 8 3 2-2 3 4v2l-5 1-9-6z" fill="#1E0C69"/>
<path transform="translate(1338,763)" d="m0 0h6l-1 2-10 2-10 4-3-1 12-6z" fill="#FDFDFD"/>
<path transform="translate(1786,503)" d="m0 0 1 4-2 17-2 3v-18z" fill="#FDD241"/>
<path transform="translate(388,637)" d="m0 0 9 2 5 2-4 2h-6z" fill="#E4E4F2"/>
<path transform="translate(191,596)" d="m0 0 14 1 9 4-4 1-19-5z" fill="#000292"/>
<path transform="translate(301,634)" d="m0 0 2 3v6l1 4-4 1v-13z" fill="#110755"/>
<path transform="translate(1641,525)" d="m0 0h1l2 14-1 5-2-1-1-11z" fill="#FDF0C4"/>
<path transform="translate(446,473)" d="m0 0h2l1 3-10 3-12 6v-3l16-7z" fill="#000292"/>
<path transform="translate(399,712)" d="m0 0 5 2 7 1 5-3 1 5h-12l-5-2z" fill="#FDFDFD"/>
<path transform="translate(395,648)" d="m0 0 4 1 4 2v2l-5 3h-3z" fill="#FDFDFD"/>
<path transform="translate(274,484)" d="m0 0 9 2 11 3v1h-8l-12-4z" fill="#7172C1"/>
<path transform="translate(469,469)" d="m0 0h10v3h-5l-1-1-9 1-6 1 2-2z" fill="#220E65"/>
<path transform="translate(388,499)" d="m0 0 1 3 3-1v2l-8 2-6-1 4-3z" fill="#020156"/>
<path transform="translate(929,486)" d="m0 0 3 1-8 7-4 8-1-3 3-7z" fill="#FDF7E5"/>
<path transform="translate(604,681)" d="m0 0h5v2h-2l-2 4-5 5-2-1 4-5z" fill="#FDFBF6"/>
<path transform="translate(183,539)" d="m0 0 1 2-7 15-2 3v-7z" fill="#4D4EB2"/>
<path transform="translate(372,530)" d="m0 0v3l-9 14-2 3 1-6 7-11z" fill="#FDFDFD"/>
<path transform="translate(693,469)" d="m0 0 5 2 10 9-3 1-7-6v-2l-4-2z" fill="#FDFDFD"/>
<path transform="translate(341,630)" d="m0 0 20 4v1l-16-1-4-2z" fill="#000292"/>
<path transform="translate(536,666)" d="m0 0 8 6 7 7h-3l-6-5-3-3-3-2z" fill="#000292"/>
<path transform="translate(456,525)" d="m0 0 2 1-1 4-1 1-7-1 4-4z" fill="#220E65"/>
<path transform="translate(948,453)" d="m0 0 14 1 6 3-4 1-7-2-9-1z" fill="#FDFDFD"/>
<path transform="translate(535,721)" d="m0 0 5 2h8l-3 3-2 1h-6v-4h-2z" fill="#F6F5F8"/>
<path transform="translate(467,517)" d="m0 0h1v5l-2 2-6-1 5-5z" fill="#00003C"/>
<path transform="translate(672,490)" d="m0 0h11l3 3h-3-13l-1-2z" fill="#1D0C6A"/>
<path transform="translate(261,454)" d="m0 0 2 1 1 2-3 4h-7l5-5z" fill="#200D63"/>
<path transform="translate(682,618)" d="m0 0h7l-4 3-9 3-3-1z" fill="#02028F"/>
<path transform="translate(359,420)" d="m0 0 1 2-13 4-3-1 5-3z" fill="#010290"/>
<path transform="translate(361,694)" d="m0 0 2 1-1 3 3 1-1 5-3-1-2-6z" fill="#080586"/>
<path transform="translate(393,500)" d="m0 0h3l-2 4-12 3-3-1 8-3 5-1z" fill="#FDFDFD"/>
<path transform="translate(211,740)" d="m0 0 3 1v2h2l4 5 4 4h-3l-10-10z" fill="#201D71"/>
<path transform="translate(421,708)" d="m0 0h2l4 11-1 3-6-11z" fill="#FDFDFD"/>
<path transform="translate(497,691)" d="m0 0 5 1 2 2-3 4h-2l-2-4z" fill="#FDFDFD"/>
<path transform="translate(328,682)" d="m0 0 5 1 2 1 3 5 3 4-4-2-9-8z" fill="#FDFDFD"/>
<path transform="translate(218,593)" d="m0 0h7l4 3-1 1h-6l-2-1v-2z" fill="#02003E"/>
<path transform="translate(1767,573)" d="m0 0 4 2 7 6 2 1-1 3-3-1-7-8z" fill="#140B49"/>
<path transform="translate(1656,452)" d="m0 0 10 1v1l-15 2-4-1z" fill="#FDFDFD"/>
<path transform="translate(1325,696)" d="m0 0 4 2 6 8-1 4-7-11z" fill="#FDF2CE"/>
<path transform="translate(380,693)" d="m0 0 4 2 1 5h-3l-2-1-1-5z" fill="#0C0A56"/>
<path transform="translate(335,683)" d="m0 0 6 1-1 7-5-4z" fill="#02028E"/>
<path transform="translate(610,502)" d="m0 0 7 1-4 1-1 2-7-1-1-2z" fill="#11087B"/>
<path transform="translate(573,702)" d="m0 0h7l-1 4-3 1-3-2z" fill="#00003C"/>
<path transform="translate(363,694)" d="m0 0 5 2-1 5h-2l-3-3z" fill="#281C7D"/>
<path transform="translate(469,681)" d="m0 0 5 2 7 8-1 2-11-11z" fill="#FDFDFD"/>
<path transform="translate(428,487)" d="m0 0h6l-5 4-5 2 1-4z" fill="#3839A9"/>
<path transform="translate(252,484)" d="m0 0 11 1 2 2-8 1-5-3z" fill="#020145"/>
<path transform="translate(438,473)" d="m0 0 3 1-4 1 1 3-4 1-3-1v-2z" fill="#1B0B6D"/>
<path transform="translate(271,471)" d="m0 0h2l-2 6-4-2 2-2z" fill="#FECB22"/>
<path transform="translate(260,472)" d="m0 0 4 2-2 1-2-1z" fill="#FDD241"/>
<path transform="translate(678,465)" d="m0 0 3 1-1 2h-2z" fill="#FECB22"/>
<path transform="translate(259,469)" d="m0 0" fill="#FDFDFD"/>
</svg>
